<svg xmlns="http://www.w3.org/2000/svg" width="450" height="195" viewBox="0 0 450 195">
  <rect x="0.5" y="0.5" width="449" height="194" rx="6" fill="#1c2128" stroke="#30363d" stroke-width="1"/>
  <text x="25" y="28" fill="#e6edf3" font-size="18" font-weight="600" font-family="-apple-system,BlinkMacSystemFont,Segoe UI,Helvetica,Arial,sans-serif">Karan Safaie Qadi's Stats</text>
  <line x1="25" y1="45" x2="425" y2="45" stroke="#30363d" stroke-width="1"/>
  <text x="25" y="60" fill="#8b949e" font-size="14" font-family="-apple-system,BlinkMacSystemFont,Segoe UI,Helvetica,Arial,sans-serif" dominant-baseline="middle"><svg width="16" height="16" viewBox="0 0 16 16" style="vertical-align:middle;margin-right:8px;"><path d="M8 .25a.75.75 0 01.673.418l1.882 3.815 4.21.612a.75.75 0 01.416 1.279l-3.046 2.97.719 4.192a.75.75 0 01-1.088.791L8 12.347l-3.766 1.98a.75.75 0 01-1.088-.79l.72-4.194L.818 6.374a.75.75 0 01.416-1.28l4.21-.611L7.327.668A.75.75 0 018 .25z" fill="#e3b341"/></svg>Total Stars</text><text x="425" y="60" fill="#e3b341" font-size="14" font-weight="600" text-anchor="end" font-family="Segoe UI,Helvetica,Arial,sans-serif" dominant-baseline="middle">14</text>
  <text x="25" y="90" fill="#8b949e" font-size="14" font-family="-apple-system,BlinkMacSystemFont,Segoe UI,Helvetica,Arial,sans-serif" dominant-baseline="middle"><svg width="16" height="16" viewBox="0 0 16 16" style="vertical-align:middle;margin-right:8px;"><path d="M1.5 8a6.5 6.5 0 1113 0 6.5 6.5 0 01-13 0zm6.5-4.5a4.5 4.5 0 100 9 4.5 4.5 0 000-9z" fill="#79c0ff"/></svg>Total Commits</text><text x="425" y="90" fill="#79c0ff" font-size="14" font-weight="600" text-anchor="end" font-family="Segoe UI,Helvetica,Arial,sans-serif" dominant-baseline="middle">2.6K</text>
  <text x="25" y="120" fill="#8b949e" font-size="14" font-family="-apple-system,BlinkMacSystemFont,Segoe UI,Helvetica,Arial,sans-serif" dominant-baseline="middle"><svg width="16" height="16" viewBox="0 0 16 16" style="vertical-align:middle;margin-right:8px;"><path d="M7.177 3.073L9.573.677A.25.25 0 0110 .854v4.792a.25.25 0 01-.427.177L7.177 3.427a.25.25 0 010-.354zM3.75 2.5a.75.75 0 100 1.5.75.75 0 000-1.5zM2.5 3.25a1.25 1.25 0 112.5 0v7.5a1.25 1.25 0 11-2.5 0v-7.5zM3.75 11.5a.75.75 0 100 1.5.75.75 0 000-1.5z" fill="#79c0ff"/></svg>Total PRs</text><text x="425" y="120" fill="#79c0ff" font-size="14" font-weight="600" text-anchor="end" font-family="Segoe UI,Helvetica,Arial,sans-serif" dominant-baseline="middle">22</text>
  <text x="25" y="150" fill="#8b949e" font-size="14" font-family="-apple-system,BlinkMacSystemFont,Segoe UI,Helvetica,Arial,sans-serif" dominant-baseline="middle"><svg width="16" height="16" viewBox="0 0 16 16" style="vertical-align:middle;margin-right:8px;"><path d="M8 1.5a6.5 6.5 0 100 13 6.5 6.5 0 000-13zM0 8a8 8 0 1116 0A8 8 0 010 8zm9 3a1 1 0 11-2 0 1 1 0 012 0zm0-5a1 1 0 00-2 0v2a1 1 0 102 0V6z" fill="#79c0ff"/></svg>Total Issues</text><text x="425" y="150" fill="#79c0ff" font-size="14" font-weight="600" text-anchor="end" font-family="Segoe UI,Helvetica,Arial,sans-serif" dominant-baseline="middle">0</text>
  <text x="25" y="180" fill="#8b949e" font-size="14" font-family="-apple-system,BlinkMacSystemFont,Segoe UI,Helvetica,Arial,sans-serif" dominant-baseline="middle"><svg width="16" height="16" viewBox="0 0 16 16" style="vertical-align:middle;margin-right:8px;"><path d="M2 2.5A2.5 2.5 0 014.5 0h8.75a.75.75 0 01.75.75v12.5a.75.75 0 01-.75.75h-2.5a.75.75 0 010-1.5h1.75v-2h-8a1 1 0 00-.714 1.7.75.75 0 01-1.072 1.05A2.495 2.495 0 012 11.5v-9zm10.5-1V9h-8c-.356 0-.694.074-1 .208V2.5a1 1 0 011-1h8zM5 12.25v3.25a.25.25 0 00.4.2l1.45-1.087a.25.25 0 01.3 0L8.6 15.7a.25.25 0 00.4-.2v-3.25a.25.25 0 00-.25-.25h-3.5a.25.25 0 00-.25.25z" fill="#79c0ff"/></svg>Repositories</text><text x="425" y="180" fill="#79c0ff" font-size="14" font-weight="600" text-anchor="end" font-family="Segoe UI,Helvetica,Arial,sans-serif" dominant-baseline="middle">14</text>
  <text x="25" y="210" fill="#8b949e" font-size="14" font-family="-apple-system,BlinkMacSystemFont,Segoe UI,Helvetica,Arial,sans-serif" dominant-baseline="middle"><svg width="16" height="16" viewBox="0 0 16 16" style="vertical-align:middle;margin-right:8px;"><path d="M2.5 1.75a.75.75 0 011.5 0v5.5c0 .69.56 1.25 1.25 1.25h2.5a.75.75 0 010 1.5h-2.5a2.75 2.75 0 01-2.75-2.75v-5.5z" fill="#79c0ff"/><path d="M6.25 4.75a.75.75 0 011.5 0v2.5a.75.75 0 01-1.5 0v-2.5z" fill="#79c0ff"/></svg>Contributed to</text><text x="425" y="210" fill="#79c0ff" font-size="14" font-weight="600" text-anchor="end" font-family="Segoe UI,Helvetica,Arial,sans-serif" dominant-baseline="middle">2</text>
  <text x="425" y="32" fill="#8b949e" font-size="12" text-anchor="end" font-family="Segoe UI,Helvetica,Arial,sans-serif">Rank: <tspan fill="#58a6ff" font-weight="700">C+</tspan></text>
</svg>