<svg xmlns="http://www.w3.org/2000/svg" width="350" height="240" viewBox="0 0 350 240">
  <rect x="0.5" y="0.5" width="349" height="239" rx="6" fill="#1c2128" stroke="#30363d" stroke-width="1"/>
  <text x="25" y="28" fill="#e6edf3" font-size="16" font-weight="600" font-family="-apple-system,BlinkMacSystemFont,Segoe UI,Helvetica,Arial,sans-serif">Top Languages</text>
  
    <text x="25" y="66" fill="#8b949e" font-size="13" font-family="-apple-system,BlinkMacSystemFont,Segoe UI,Helvetica,Arial,sans-serif">JavaScript</text>
    <rect x="110" y="50" width="210" height="20" rx="4" fill="#30363d"/>
    <rect x="110" y="50" width="90.88605966416394" height="20" rx="4" fill="#f1e05a"/>
    <text x="325" y="66" fill="#8b949e" font-size="12" text-anchor="end" font-family="Segoe UI,Helvetica,Arial,sans-serif">43.3%</text>
  
    <text x="25" y="94" fill="#8b949e" font-size="13" font-family="-apple-system,BlinkMacSystemFont,Segoe UI,Helvetica,Arial,sans-serif">PHP</text>
    <rect x="110" y="78" width="210" height="20" rx="4" fill="#30363d"/>
    <rect x="110" y="78" width="36.46883249880353" height="20" rx="4" fill="#4F5D95"/>
    <text x="325" y="94" fill="#8b949e" font-size="12" text-anchor="end" font-family="Segoe UI,Helvetica,Arial,sans-serif">17.4%</text>
  
    <text x="25" y="122" fill="#8b949e" font-size="13" font-family="-apple-system,BlinkMacSystemFont,Segoe UI,Helvetica,Arial,sans-serif">TypeScript</text>
    <rect x="110" y="106" width="210" height="20" rx="4" fill="#30363d"/>
    <rect x="110" y="106" width="30.6149361108681" height="20" rx="4" fill="#3178c6"/>
    <text x="325" y="122" fill="#8b949e" font-size="12" text-anchor="end" font-family="Segoe UI,Helvetica,Arial,sans-serif">14.6%</text>
  
    <text x="25" y="150" fill="#8b949e" font-size="13" font-family="-apple-system,BlinkMacSystemFont,Segoe UI,Helvetica,Arial,sans-serif">HTML</text>
    <rect x="110" y="134" width="210" height="20" rx="4" fill="#30363d"/>
    <rect x="110" y="134" width="27.815418817317735" height="20" rx="4" fill="#e34c26"/>
    <text x="325" y="150" fill="#8b949e" font-size="12" text-anchor="end" font-family="Segoe UI,Helvetica,Arial,sans-serif">13.2%</text>
  
    <text x="25" y="178" fill="#8b949e" font-size="13" font-family="-apple-system,BlinkMacSystemFont,Segoe UI,Helvetica,Arial,sans-serif">CSS</text>
    <rect x="110" y="162" width="210" height="20" rx="4" fill="#30363d"/>
    <rect x="110" y="162" width="23.970157625784143" height="20" rx="4" fill="#663399"/>
    <text x="325" y="178" fill="#8b949e" font-size="12" text-anchor="end" font-family="Segoe UI,Helvetica,Arial,sans-serif">11.4%</text>
</svg>